<svg xmlns="http://www.w3.org/2000/svg" viewBox="0 0 400 500" width="400" height="500" role="img" aria-label="Medjool Dates — Premium Jumbo (1kg)">
  <defs>
    <linearGradient id="accent" gradientTransform="rotate(69 .5 .5)"><stop offset="0" stop-color="#1BB4D4"/><stop offset="1" stop-color="#0E7C99"/></linearGradient>
    <radialGradient id="glow" cx="61%" cy="52%" r="75%"><stop offset="0" stop-color="#1BB4D4" stop-opacity=".22"/><stop offset="60%" stop-color="#1BB4D4" stop-opacity="0"/></radialGradient>
    <radialGradient id="vig" cx="50%" cy="44%" r="75%"><stop offset="55%" stop-color="#000" stop-opacity="0"/><stop offset="100%" stop-color="#000" stop-opacity=".42"/></radialGradient>
    <pattern id="dots" width="18" height="18" patternUnits="userSpaceOnUse"><circle cx="1.5" cy="1.5" r="1.2" fill="#ffffff" fill-opacity=".05"/></pattern>
    <filter id="soft" x="-20%" y="-20%" width="140%" height="140%"><feDropShadow dx="0" dy="10" stdDeviation="16" flood-color="#000" flood-opacity=".45"/></filter>
  </defs>
  <rect width="400" height="500" fill="#141414"/>
  <rect width="400" height="500" fill="url(#dots)"/>
  <rect width="400" height="500" fill="url(#glow)"/>
  <g filter="url(#soft)" transform="translate(200 250) scale(1.28) translate(-200 -232)"><path fill="url(#accent)" stroke="rgba(255,255,255,.18)" stroke-width="1.5" d="M130 192 q0 -26 26 -30 l88 0 q26 4 26 30 l0 130 q0 20 -20 20 l-80 0 q-20 0 -20 -20 z"/>
        <path stroke="rgba(255,255,255,.16)" fill="none" stroke-width="1.2" d="M130 232 l140 0 M200 162 l0 160"/></g>
  <rect width="400" height="500" fill="url(#vig)"/>
  
  
  
</svg>
